<?xml version="1.0" encoding="UTF-8"?>
<svg id="Layer_1" data-name="Layer 1" xmlns="http://www.w3.org/2000/svg" width="512" height="512" viewBox="0 0 512 512">
  <circle cx="256" cy="256" r="251.46" fill="#fff"/>
  <path d="M388.93,125.37l-7.64,10.78c30.05,31.39,48.45,74.02,48.18,120.86-.54,94.38-77.35,171.52-171.72,172.46-9.52.09-18.87-.59-27.99-1.98-33.59-6.89-60.46-22.22-71.48-41.19-5.95-10.25-6.87-20.82-2.73-31.39,2.14-5.47,7.62-13.96,15.44-24.5.08,0,.15,0,.23-.01,58.22-7.16,94.63-30.35,114.92-48.55,22.26-19.96,30.54-38.28,30.88-39.05.88-2,.71-4.3-.47-6.14-1.18-1.84-3.2-2.96-5.38-3l-8.74-.13c1.98-1.24,3.93-2.54,5.84-3.9,13.36-9.53,30.86-26.15,38.38-51.2,12.21-40.71,49.4-78.87,49.78-79.25,2-2.03,2.44-5.12,1.1-7.62-1.34-2.51-4.16-3.86-6.95-3.32-13.07,2.49-25.23,5.62-36.57,9.2-28.5-17.68-62.09-27.9-98.03-27.9-102.68,0-187.38,85.49-186.47,188.16.39,44.26,16.3,84.89,42.52,116.71,2.23,2.71,6.23,3.12,8.99.95,2.86-2.24,3.36-6.4,1.05-9.2-25.07-30.41-40-69.47-39.56-111.97.96-93.36,76.54-169.73,169.88-171.62,30.9-.63,60.03,6.88,85.41,20.51-44.3,16.93-73.94,40.89-92.39,60.46-10.75,11.4-18.73,22.26-24.47,31.3-.03-2.45-1.42-4.67-3.62-5.76-2.22-1.09-4.87-.84-6.83.67-51.55,39.46-50.91,106.41-50.86,109.24.07,3.55,2.96,6.38,6.5,6.38.04,0,.08,0,.12,0,3.59-.07,6.45-3.03,6.38-6.62-.01-.58-.53-53.37,35.31-89.49v11.94c0,3.15,2.26,5.84,5.37,6.4,3.1.55,6.16-1.21,7.24-4.17.09-.24,9.12-24.43,34.79-51.46,21.43-22.57,58.81-51.4,118.38-66.67-12.77,15.66-31.19,41.58-39.53,69.4-11.88,39.6-54.87,58.05-63.88,58.37h-.74s-.07-.01-.1-.01c-3.5,0-6.38,2.77-6.49,6.28-.12,3.54,2.62,6.52,6.15,6.71.34.02.69.03,1.06.02l29.7.44c-4.39,6.63-11.78,16.19-23,26.16-17.34,15.4-47.42,34.7-94.47,42.92,36.56-45.88,100.67-115.18,140.13-156.42,1.33-1.39.91-3.66-.82-4.49h0c-1.08-.52-2.38-.3-3.23.55-16.89,16.89-160.56,157.92-175.08,194.96-5.58,14.25-4.34,29,3.59,42.66,2.04,3.52,4.52,6.89,7.37,10.12.62.8,1.26,1.61,1.94,2.43,8.26,8.06,29.67,25.84,64.27,33.42,1.68.37,3.18.74,4.56,1.12,10.6,1.77,21.5,2.65,32.61,2.55,100.6-.95,182.84-82.47,184.65-183.06.94-52.17-19.68-99.62-53.51-134.04Z" fill="#117c6f"/>
</svg>